<svg version="1.1" id="Layer_1" xmlns="http://www.w3.org/2000/svg" xmlns:xlink="http://www.w3.org/1999/xlink" x="0px" y="0px"
	 width="100%" viewBox="0 0 512 512" enable-background="new 0 0 512 512" xml:space="preserve">
<path fill="#000000" opacity="1.000000" stroke="none" 
	d="
M1.000000,233.437500 
	C15.578373,231.594696 29.275980,226.831512 42.765114,221.570541 
	C76.717957,208.328415 108.285324,190.375381 139.487396,171.770538 
	C166.245651,155.815369 192.943802,139.767105 221.146454,126.420715 
	C237.430511,118.714584 254.113556,111.963257 271.567596,107.474258 
	C331.462921,92.069801 382.728485,107.644211 425.999939,151.160110 
	C430.812073,155.999420 435.225494,161.234711 440.027771,166.084412 
	C443.114563,169.201721 440.840240,170.873337 438.874451,173.050339 
	C436.408569,175.781097 434.766296,174.602402 432.793152,172.461426 
	C429.446442,168.830048 426.746857,164.538300 421.301392,161.013397 
	C420.443207,162.328384 419.757996,163.972961 418.570465,165.077454 
	C415.883423,167.576569 416.044342,169.714172 418.548462,172.225983 
	C421.249451,174.935287 423.598328,177.997009 426.314545,180.689362 
	C428.848816,183.201279 428.865295,185.060715 426.231903,187.715775 
	C409.340088,204.746841 392.663666,221.991562 375.768402,239.019196 
	C372.866516,241.943832 370.849396,247.118988 366.927124,247.330688 
	C362.800995,247.553391 361.342804,241.809982 358.171875,239.239883 
	C357.533813,238.722717 356.898682,238.201981 356.265289,237.685410 
	C353.547455,238.104904 352.555908,240.479233 350.891815,241.997833 
	C349.216309,243.526840 349.075012,245.136078 350.947937,246.608109 
	C357.328644,251.623138 358.169037,256.622803 353.292175,263.870941 
	C349.110718,270.085480 345.687531,276.412628 338.116974,278.838074 
	C335.632874,279.633911 335.070648,280.884827 335.807922,283.290710 
	C347.554840,321.623291 315.816223,364.608368 270.651276,364.368286 
	C235.825439,364.183167 208.036697,341.265991 203.262192,306.942017 
	C199.406357,279.222504 215.456345,249.825027 246.549698,238.575424 
	C274.652649,228.407791 305.359619,236.983597 324.163818,260.024841 
	C329.241852,266.247070 335.259918,265.259308 338.149323,257.729309 
	C340.847198,250.698257 340.522705,249.761017 334.987427,244.857452 
	C320.541656,232.060379 304.452637,222.262512 285.414520,218.088867 
	C266.044281,213.842422 247.019943,216.010605 228.306641,221.995010 
	C226.880905,222.450943 225.061493,222.966339 224.691223,224.428406 
	C223.485336,229.190048 219.473740,229.965775 215.759399,231.354156 
	C199.479706,237.439346 184.199860,245.592468 169.065750,254.041748 
	C166.740051,255.340179 164.213058,257.185577 163.903152,252.109680 
	C161.143326,253.687607 158.543213,255.158432 155.960327,256.658875 
	C154.955872,257.242401 153.531952,257.807404 153.533157,259.002106 
	C153.539032,264.799469 148.760422,266.057892 145.005096,268.263275 
	C130.066238,277.036499 115.108482,285.777527 99.544579,293.422791 
	C97.350311,294.500671 95.493111,296.112946 93.101402,293.120544 
	C91.645721,291.299255 84.446678,294.878418 84.649902,297.380768 
	C84.864594,300.024475 83.741318,300.978485 81.708038,301.796417 
	C66.501167,307.913666 51.035576,312.977722 34.432018,313.341614 
	C30.158072,313.435272 25.560585,314.420074 23.107410,309.595795 
	C15.481357,314.824280 8.729270,309.578857 1.399665,309.055481 
	C1.000000,298.312439 1.000000,287.624878 1.274806,276.661224 
	C4.802151,280.811249 8.350869,285.054718 11.224623,289.714417 
	C14.148322,294.455139 17.652987,296.744934 23.458000,296.189636 
	C28.785301,295.680084 31.171839,298.379944 31.873013,304.127380 
	C29.743820,306.029419 26.362415,303.877258 24.106293,306.259888 
	C32.373001,310.315155 75.325218,300.480133 80.377892,293.416962 
	C77.674507,292.193481 75.535271,293.927795 73.363808,294.670959 
	C70.651176,295.599335 69.126366,295.018066 67.764099,292.388428 
	C65.744110,288.489044 66.419830,286.317902 70.771950,285.030090 
	C73.603004,284.192352 76.623466,283.145905 75.073952,278.779266 
	C70.786743,266.697601 66.653320,254.560394 62.577621,242.405396 
	C61.565620,239.387314 59.952011,239.133667 57.288338,240.234085 
	C53.292004,241.885040 49.217541,243.365814 45.116882,244.741867 
	C30.741467,249.565857 16.211254,253.756622 1.000000,255.000000 
	C1.000000,251.638718 1.000000,248.277420 1.355724,244.601807 
	C6.066544,245.440857 9.975967,244.058151 13.899084,242.569656 
	C13.594094,239.221924 12.222075,238.345200 9.239392,238.935059 
	C6.544123,239.468079 3.848189,240.483994 1.000000,240.000000 
	C1.000000,237.958328 1.000000,235.916672 1.000000,233.437500 
M330.775452,134.807068 
	C309.921082,129.186935 289.236359,131.261337 268.603180,136.138229 
	C266.072693,136.736343 264.627319,138.208313 263.790405,140.645370 
	C258.870209,154.972656 253.836548,169.260986 248.924271,183.590942 
	C247.386139,188.078033 248.280106,189.002472 252.942108,188.163254 
	C267.603455,185.524033 282.285492,184.612244 297.054993,187.362320 
	C316.490601,190.981247 333.661346,199.477982 348.918427,211.817123 
	C352.576447,214.775558 354.556244,214.383942 357.290527,210.941467 
	C368.063538,197.378326 378.948853,183.902008 389.974091,170.543320 
	C392.639893,167.313293 391.139771,165.606293 388.663849,163.641266 
	C371.625702,150.118744 353.040894,139.690735 330.775452,134.807068 
M103.225731,217.784729 
	C96.319023,221.442032 89.481705,225.240417 82.471794,228.687851 
	C79.627182,230.086807 79.064293,231.658096 79.917702,234.596771 
	C82.651131,244.009369 85.007492,253.532166 87.786041,262.930664 
	C88.979591,266.967834 89.260826,271.375580 91.754021,274.984741 
	C94.588661,274.674744 96.563797,273.000336 98.839096,272.052521 
	C100.098129,271.528076 101.314240,271.026154 102.476051,272.296082 
	C104.932571,274.981293 104.015015,280.118225 100.801666,282.050751 
	C98.550987,283.404327 95.491524,283.818359 94.473213,286.806488 
	C96.055923,288.196716 97.267044,287.228577 98.379601,286.675262 
	C115.373466,278.223938 131.721283,268.614594 147.993011,258.873016 
	C149.322556,258.077026 150.905685,257.268707 150.329895,255.127365 
	C146.777100,255.207962 144.872482,258.793915 141.501511,258.563843 
	C138.578186,252.764175 139.434509,249.646500 144.414856,246.453705 
	C147.582779,244.422806 151.933151,243.660507 151.825470,238.211670 
	C151.546326,224.085953 153.389847,209.998230 152.875290,195.856781 
	C152.812531,194.131973 153.600464,192.166275 151.385880,190.513855 
	C135.626846,199.431381 119.743172,208.419434 103.225731,217.784729 
M177.156296,238.320602 
	C174.184738,241.016174 169.324051,241.437027 166.930893,246.502716 
	C168.566025,246.108368 169.231476,246.085709 169.754913,245.801483 
	C183.075073,238.568344 196.573853,231.694199 210.502747,225.702377 
	C213.219772,224.533585 214.001862,222.210556 214.492599,219.784943 
	C217.498276,204.928772 222.112122,190.508957 226.147263,175.929245 
	C228.697174,166.715973 231.651474,157.579681 233.241730,148.160461 
	C231.457321,147.437775 230.256790,148.203125 229.086380,148.702652 
	C210.834045,156.492844 193.370270,165.836349 176.091476,175.555756 
	C173.532578,176.995132 172.693893,179.217224 172.480408,181.701889 
	C171.087799,197.910324 169.816498,214.129196 168.540619,230.347443 
	C168.524582,230.551178 168.968582,230.791107 169.272949,231.087204 
	C172.818192,231.246796 174.902008,226.997406 179.041443,227.662140 
	C179.637787,231.191559 178.290894,234.426132 177.156296,238.320602 
M249.541153,343.999359 
	C251.977097,346.118042 254.831436,347.447510 257.921783,348.232269 
	C264.984741,350.025879 272.821014,347.130859 276.891144,341.306732 
	C279.840240,337.086731 279.635498,331.108337 276.067078,326.423828 
	C271.850220,320.887970 266.033661,318.172302 259.153320,318.530334 
	C252.651886,318.868652 247.192352,321.491943 244.495956,327.943634 
	C241.848602,334.277985 244.503250,339.197144 249.541153,343.999359 
M290.276611,254.164566 
	C288.121368,252.533630 285.682190,251.499435 283.086823,250.834641 
	C271.332550,247.823883 260.358795,256.175446 262.341522,266.887299 
	C263.802277,274.779022 269.794617,278.248413 276.978394,280.032104 
	C284.132233,281.808350 292.563293,278.166473 295.793243,272.014923 
	C299.011963,265.884796 297.519989,260.594818 290.276611,254.164566 
M305.791168,291.275696 
	C297.269257,292.807587 292.316406,298.039825 290.539642,306.325043 
	C288.720367,314.808594 294.599762,323.852081 302.364166,324.798309 
	C312.353607,326.015686 320.179047,319.297485 321.572235,308.307953 
	C322.662079,299.711304 316.213806,292.364899 305.791168,291.275696 
M219.272339,290.770935 
	C219.316513,295.956268 220.588547,300.646149 224.787460,304.098816 
	C230.082352,308.452728 236.204437,308.822876 241.874115,305.179413 
	C248.442215,300.958649 251.991928,292.713165 250.195938,285.848907 
	C247.423599,275.252991 236.796936,270.482147 228.081619,276.009674 
	C222.991425,279.238007 220.387451,284.128876 219.272339,290.770935 
M405.241791,152.715668 
	C406.386810,150.880890 409.007629,149.260422 406.255859,146.802231 
	C400.153076,141.350494 393.582977,136.516846 386.533264,132.367767 
	C382.772614,130.154434 382.195068,134.030624 380.644562,135.791794 
	C379.061462,137.590042 379.165314,139.112305 381.421387,140.676605 
	C387.575653,144.943832 393.648102,149.344040 399.555054,153.945572 
	C401.874329,155.752319 403.329468,155.505264 405.241791,152.715668 
M354.505768,117.076775 
	C345.173767,113.951302 344.157867,114.403618 342.214905,122.831703 
	C347.417633,124.734200 352.698547,126.567398 357.904846,128.592407 
	C365.407318,131.510529 366.525024,130.999680 368.999054,122.569389 
	C364.448395,120.832809 359.845459,119.076294 354.505768,117.076775 
M324.006042,223.751129 
	C328.824554,227.208542 333.643066,230.665955 338.651520,234.259659 
	C340.105957,232.556473 341.372803,231.053177 342.661743,229.569061 
	C344.004028,228.023514 343.926239,226.548401 342.378967,225.242920 
	C337.573822,221.188568 332.610687,217.360306 326.482697,214.268921 
	C325.539307,217.581467 319.904083,218.701370 324.006042,223.751129 
M323.296844,119.786819 
	C328.840973,120.033333 329.401093,116.040443 330.333710,111.637184 
	C324.539886,111.297600 319.246185,110.076385 313.742554,110.282341 
	C307.216797,110.526543 305.953857,111.526146 305.177338,118.554962 
	C310.912903,119.265465 316.787567,118.305420 323.296844,119.786819 
M275.430359,305.116455 
	C275.884064,304.631226 276.403595,304.192108 276.780975,303.653442 
	C279.517456,299.747192 278.867432,295.935547 275.055023,293.350586 
	C271.603790,291.010498 266.242798,291.893524 263.847595,295.196564 
	C261.431641,298.528229 262.028381,302.817383 265.506500,305.355316 
	C268.468109,307.516357 271.672394,307.514404 275.430359,305.116455 
M272.919250,123.171371 
	C276.658386,122.416557 280.371674,121.237030 284.142792,121.007545 
	C289.651794,120.672295 291.378693,117.505165 292.031799,112.474037 
	C285.280121,112.431206 279.289062,114.484207 273.164978,115.723274 
	C268.859436,116.594414 267.401398,119.413528 267.412659,123.458115 
	C269.247162,124.057747 270.696320,123.679787 272.919250,123.171371 
M297.457794,202.744171 
	C295.490021,204.790543 294.352814,207.222137 293.655304,209.930130 
	C297.329468,211.240540 300.622192,212.344543 303.862610,213.585205 
	C310.699280,216.202759 311.974243,215.553421 314.239838,207.731476 
	C309.136261,205.252930 304.004944,202.767410 297.457794,202.744171 
M266.683441,202.949570 
	C265.453217,205.600998 266.016113,207.032837 269.223175,206.906387 
	C271.368500,206.821823 273.525940,206.866852 275.670868,206.983963 
	C282.531799,207.358536 282.901733,207.113678 285.047821,200.088104 
	C281.621948,197.976334 277.779968,198.569977 274.042542,198.400146 
	C270.837250,198.254501 268.039734,198.635422 266.683441,202.949570 
M239.845200,204.119568 
	C238.469818,205.846878 237.743118,207.731995 238.115158,209.955963 
	C250.759094,210.106491 254.248428,208.178329 255.921158,200.071625 
	C250.682175,201.260208 245.345016,201.506393 239.845200,204.119568 
M87.771202,213.361862 
	C87.594215,211.856018 88.186440,209.301300 85.457634,210.285477 
	C82.066322,211.508606 78.772270,213.192612 75.736465,215.144547 
	C73.635452,216.495438 74.126694,218.511566 76.218895,220.354492 
	C80.115227,218.568451 84.436562,217.419250 87.771202,213.361862 
M219.158524,141.058655 
	C229.953415,137.471924 232.486267,136.334457 231.273392,130.518570 
	C222.940125,132.053452 219.657486,134.707443 219.158524,141.058655 
M53.302681,225.174713 
	C50.441116,226.375717 47.334126,227.051987 44.816334,228.987473 
	C44.797668,230.654297 45.135853,232.024582 46.840508,233.374908 
	C49.813477,232.233002 53.035561,231.033249 56.226032,229.754608 
	C57.918934,229.076157 58.996998,228.031525 58.297958,225.929413 
	C57.362446,223.116135 55.640221,224.237350 53.302681,225.174713 
M98.041824,203.706329 
	C96.833542,205.318298 96.588882,206.969284 97.772194,208.698792 
	C107.705612,206.086853 111.250015,202.585312 108.507965,197.658386 
	C105.205223,199.516388 101.898842,201.376434 98.041824,203.706329 
M141.316956,181.181961 
	C141.349365,182.740143 141.272766,184.602951 143.680191,183.306580 
	C146.586136,181.741745 149.454178,180.075745 152.185425,178.227142 
	C154.325806,176.778503 154.223755,174.804382 153.030579,172.735596 
	C146.863174,174.790543 143.043198,177.369583 141.316956,181.181961 
M183.499298,159.962524 
	C186.545380,158.414108 187.547699,156.070847 186.547073,152.723557 
	C175.014160,157.576263 173.572403,159.058014 175.380783,164.040100 
	C175.701935,164.003922 176.071091,164.058212 176.336655,163.917282 
	C178.532806,162.751892 180.709763,161.550369 183.499298,159.962524 
M202.568726,149.827103 
	C209.356979,146.457703 209.410629,146.381836 208.686203,141.175903 
	C197.781982,144.688126 195.495636,146.935883 197.869690,151.825272 
	C199.481857,151.893631 200.637497,150.827774 202.568726,149.827103 
M123.536484,189.130081 
	C120.934593,190.739059 117.742622,192.065018 120.021271,196.145035 
	C128.756348,193.770386 132.111069,190.530640 131.172424,185.334793 
	C128.505737,185.822327 126.498466,187.637299 123.536484,189.130081 
M252.077301,122.533661 
	C247.354614,124.326385 240.871536,124.005569 240.826309,132.031708 
	C244.403931,131.503632 247.430023,130.271484 250.339035,128.768234 
	C252.846008,127.472763 253.566956,125.346626 252.077301,122.533661 
M29.782331,233.441284 
	C27.491278,234.642883 24.544317,234.417755 22.644768,236.605179 
	C23.058954,238.596817 23.642954,240.402603 26.086344,240.010818 
	C28.205288,239.671066 30.345257,239.182663 32.334064,238.399628 
	C33.923405,237.773911 36.911560,238.180466 36.072006,234.973221 
	C35.188629,231.598557 32.806797,232.403427 29.782331,233.441284 
z"/>
<path fill="#000000" opacity="1.000000" stroke="none" 
	d="
M68.078506,373.616577 
	C107.881561,373.606384 147.202484,373.932007 186.513565,373.451233 
	C208.501877,373.182343 230.486115,373.163666 252.471680,373.126251 
	C298.441895,373.048065 344.412384,373.078491 390.382690,373.133484 
	C410.186462,373.157166 429.989960,373.371307 449.793762,373.441101 
	C451.768341,373.448059 453.660126,373.366730 453.781158,375.943573 
	C453.897614,378.423859 452.067047,378.906860 450.092621,378.993927 
	C448.262695,379.074646 446.429077,379.102844 444.597107,379.102844 
	C318.314056,379.101593 192.030991,379.096008 65.747940,379.082153 
	C63.584763,379.081909 61.410759,379.089539 59.261799,378.884216 
	C57.504551,378.716309 56.672409,377.547028 56.813408,375.750946 
	C56.950150,374.009125 58.124149,373.599060 59.595219,373.597443 
	C62.260887,373.594452 64.926575,373.608398 68.078506,373.616577 
z"/>
<path fill="#000000" opacity="1.000000" stroke="none" 
	d="
M359.325989,345.838989 
	C360.317139,343.748169 361.186188,341.948120 361.964752,340.109772 
	C364.851349,333.293823 371.856262,331.274780 378.796967,335.363068 
	C372.049713,342.739624 376.437958,351.205353 376.027161,359.278259 
	C378.653900,356.548889 382.521057,354.411224 379.451569,349.949829 
	C378.654022,348.790680 378.711029,347.371887 379.530792,346.160919 
	C382.328522,342.028229 386.523438,341.314697 391.020721,341.806305 
	C395.021484,342.243622 397.078186,344.756104 397.764557,348.691956 
	C398.377441,352.206573 398.035980,355.711090 399.590332,359.322418 
	C400.860077,362.272491 397.025513,364.385590 394.189087,364.072235 
	C385.068054,363.064514 376.004333,364.523193 366.920227,364.157623 
	C365.594757,364.104279 364.204987,364.192078 362.965363,363.816803 
	C361.268463,363.303070 360.159241,361.634399 361.859619,360.520844 
	C367.155823,357.052246 363.793610,352.188538 363.935974,347.796539 
	C362.105530,351.992096 360.321960,356.209076 358.419159,360.371552 
	C357.758087,361.817688 357.305420,363.797729 355.177582,363.659241 
	C353.377533,363.542114 353.050476,361.778748 352.437622,360.439392 
	C350.571777,356.361786 348.708435,352.283020 346.323395,348.321259 
	C346.964020,352.411896 343.754913,357.016663 348.729980,360.539581 
	C350.220215,361.594818 349.474487,363.530151 347.605072,363.867432 
	C344.663361,364.398224 341.600525,364.552277 338.683960,363.794891 
	C336.822540,363.311523 336.267792,361.320526 337.912292,360.455841 
	C341.456604,358.592072 340.791901,355.579987 340.822815,352.666595 
	C340.858185,349.336273 340.795471,346.004974 340.811493,342.674286 
	C340.821320,340.625854 340.815582,338.660858 338.494537,337.646088 
	C337.542114,337.229645 336.903839,336.391846 337.275299,335.228790 
	C337.642090,334.080414 338.689575,334.013245 339.674377,333.791840 
	C347.829590,331.958313 351.209473,333.676727 354.781311,341.519226 
	C356.878082,346.122955 356.878113,346.122955 359.325989,345.838989 
z"/>
<path fill="#000000" opacity="1.000000" stroke="none" 
	d="
M371.906708,396.581726 
	C375.582123,396.305695 375.783386,392.271973 378.247253,391.242004 
	C380.682617,391.877502 379.089905,393.960724 379.957520,395.067749 
	C381.396271,396.564728 384.089722,394.420685 385.582397,397.571533 
	C381.343201,398.913666 374.971954,398.723907 376.842010,405.947601 
	C378.943420,406.894684 380.050873,403.748840 382.303253,405.210724 
	C381.907135,408.082947 379.690918,409.185181 377.326538,409.792847 
	C374.151398,410.608917 373.189087,407.836731 372.164978,405.753601 
	C364.430206,408.424591 364.430206,408.424591 360.870361,401.760193 
	C358.262238,402.110474 357.400421,404.616547 355.757446,406.103058 
	C353.298676,408.327698 351.986938,406.941162 351.067657,404.675964 
	C341.475494,410.146332 331.728821,408.972931 326.318207,401.295441 
	C324.759338,403.121857 323.612366,405.667511 321.758850,406.383087 
	C318.080170,407.803284 319.594788,403.213135 317.858276,402.056152 
	C315.904022,402.334045 315.284821,404.031830 314.346893,405.319885 
	C311.290039,409.517792 311.213531,409.534637 308.322784,405.319641 
	C300.732422,408.343781 300.732422,408.343781 296.855164,401.131622 
	C294.555328,401.486298 294.271576,403.946045 292.772400,405.127350 
	C291.185364,406.377899 290.035828,408.934875 287.534576,406.244659 
	C286.406830,405.031677 285.445526,406.393372 284.501373,406.914459 
	C278.174500,410.406067 277.626495,410.255524 274.061798,403.759247 
	C271.278229,404.274353 268.730255,407.380249 265.387634,404.877899 
	C264.380066,404.123596 263.391846,405.691345 262.472412,406.336395 
	C260.979858,407.383575 259.521362,408.814758 257.538879,407.612030 
	C255.263748,406.231812 256.098328,404.201599 256.640869,402.258179 
	C256.765533,401.811554 256.659241,401.300446 256.659241,400.823303 
	C252.188217,400.363220 250.835800,401.768433 250.596069,407.202301 
	C250.536118,408.561310 251.647980,410.690674 249.237885,410.616058 
	C246.912384,410.544037 247.273621,408.391327 247.496063,406.725037 
	C247.862061,403.983337 248.781677,401.164490 245.216339,398.657501 
	C250.725800,397.787170 249.115036,392.122772 252.765915,389.913788 
	C253.192947,390.736633 253.693298,391.270111 253.726105,391.830933 
	C254.034714,397.105011 255.651398,398.104218 260.612244,395.998901 
	C266.782928,393.380127 267.470825,393.801636 268.123352,400.527222 
	C268.168793,400.995758 268.463837,401.440063 268.692047,402.020966 
	C272.726990,402.282288 273.783203,397.537781 277.101776,396.732483 
	C278.916962,398.414307 278.043610,400.346069 278.145752,402.068512 
	C278.350037,405.514160 279.835724,406.109161 282.667114,404.376312 
	C285.843018,402.432587 287.633606,399.131012 289.968292,396.695770 
	C292.975891,396.970032 291.259888,399.379181 292.108063,400.557678 
	C297.132141,395.683685 297.132141,395.683685 302.839050,404.023956 
	C306.856537,403.049103 308.585693,399.337524 311.030579,396.802216 
	C313.455078,396.572937 312.854004,398.932770 313.820465,399.808441 
	C319.223297,396.279541 319.223297,396.279541 322.387299,401.205322 
	C323.303192,400.161285 324.128204,399.142395 325.035004,398.202362 
	C327.424194,395.725769 329.131195,396.490692 330.116180,399.459778 
	C330.735474,401.326691 330.710083,403.661591 333.517609,403.587219 
	C336.048584,403.520172 336.671143,401.510315 337.275543,399.557495 
	C337.324432,399.399628 337.402863,399.248962 337.481689,399.102631 
	C338.756989,396.735291 340.028351,394.319031 343.076416,393.918427 
	C344.413177,393.742798 345.408813,394.569550 345.678558,395.787445 
	C346.315063,398.661835 344.321320,400.391205 342.575348,402.176331 
	C341.895050,402.871887 341.020844,403.428894 340.963989,404.549622 
	C345.137177,405.546600 347.081818,404.332581 354.151764,396.372101 
	C356.458954,396.455811 355.712708,398.473877 356.362610,400.049011 
	C362.869385,392.962006 364.619476,398.560638 366.141449,403.979767 
	C371.108978,403.544678 372.458191,400.958313 371.906708,396.581726 
z"/>
<path fill="#000000" opacity="1.000000" stroke="none" 
	d="
M415.013092,357.997467 
	C413.888702,362.314545 411.117706,364.793640 406.660309,364.024475 
	C402.027313,363.224976 401.059845,359.556366 400.977448,355.326630 
	C400.919525,352.355408 402.417419,349.083893 399.329620,346.468658 
	C398.116577,345.441254 399.317322,344.031952 400.304016,343.062622 
	C401.609711,341.779907 402.995514,340.568878 404.210663,339.205658 
	C408.109283,334.832092 408.010742,334.845917 410.448914,339.973480 
	C411.843964,342.907349 414.269958,342.199402 416.326599,340.932159 
	C417.699066,340.086548 418.674805,338.604370 419.848846,337.427765 
	C421.891479,335.380676 424.183777,335.036865 424.098358,338.492523 
	C423.986572,343.013672 430.764282,340.922028 429.215790,346.036591 
	C436.505829,340.423920 442.036957,340.449799 445.505463,345.530060 
	C448.963684,350.595276 447.574402,353.686676 441.602814,354.207825 
	C440.466827,354.306976 439.215729,354.110931 438.424286,355.762878 
	C439.627594,358.524506 441.389740,357.892395 443.295135,356.326843 
	C444.451294,355.376923 445.701172,354.937805 446.844971,356.129395 
	C448.008148,357.341187 447.234711,358.562683 446.520996,359.742126 
	C443.122986,365.357666 436.318909,365.830261 429.646881,360.892975 
	C421.183990,365.767548 418.702881,365.373840 415.117065,357.874207 
	C414.889496,356.472046 414.998230,355.783600 414.835114,355.167053 
	C414.238617,352.912415 416.462738,348.681854 412.734833,348.827667 
	C409.680481,348.947052 411.399139,353.149200 410.605133,355.733398 
	C412.255035,356.419556 413.988800,356.623871 415.013092,357.997467 
M427.514984,349.517609 
	C426.656189,348.458710 425.696564,348.519928 425.412506,349.792389 
	C424.969147,351.778198 424.674896,353.874634 425.993286,356.066467 
	C428.549255,354.396515 427.379059,352.087769 427.514984,349.517609 
z"/>
<path fill="#000000" opacity="1.000000" stroke="none" 
	d="
M448.632812,347.755127 
	C446.456665,342.917297 446.956177,341.485657 451.433197,342.059692 
	C456.519226,342.711792 461.587769,340.717377 466.899445,343.242218 
	C469.127350,344.301270 473.515228,341.623627 477.253235,341.668549 
	C480.410553,341.706543 481.404541,342.774139 481.375183,345.666138 
	C481.341736,348.958557 481.619659,352.199554 482.282562,355.479950 
	C483.298279,360.506500 480.357330,363.920410 475.355560,364.284637 
	C466.560516,364.925110 465.815308,363.986115 466.979431,354.982910 
	C467.291290,352.570923 467.014221,350.198944 463.278961,350.041931 
	C460.246429,349.914490 457.884125,349.617157 458.203156,353.693817 
	C458.379486,355.946716 457.606506,358.381104 459.646484,360.260468 
	C460.087280,360.666473 460.384949,361.377838 460.468384,361.986938 
	C460.596161,362.920013 459.962402,363.687866 459.116791,363.793365 
	C455.506012,364.244049 451.850281,364.697235 448.322418,363.419495 
	C447.257935,363.033936 447.066284,361.871643 447.616547,360.877533 
	C449.876831,356.794189 448.511475,352.417542 448.632812,347.755127 
z"/>
<path fill="#000000" opacity="1.000000" stroke="none" 
	d="
M153.270279,364.748169 
	C150.427628,364.961517 147.974380,365.130524 145.973541,363.239685 
	C150.130600,357.034363 150.163773,343.680023 146.193909,338.449951 
	C146.467392,336.901672 147.733276,336.835785 148.867935,336.824158 
	C153.364044,336.778015 157.875854,336.594849 162.352982,336.894196 
	C165.924683,337.132996 169.253571,338.302124 170.709366,342.169739 
	C172.140930,345.972931 169.587662,348.028259 166.838303,350.376495 
	C170.551758,353.707886 169.501389,359.545135 174.029037,362.389984 
	C172.674164,366.176056 169.716370,365.311890 167.271652,365.074371 
	C164.242630,364.780151 162.777222,362.728607 162.158432,359.772064 
	C161.603256,357.119537 162.284622,353.571106 157.986130,352.597778 
	C156.475693,356.727631 156.942291,360.143250 160.210709,362.831543 
	C158.398071,365.797424 155.748596,364.132385 153.270279,364.748169 
M160.897522,341.510101 
	C154.392059,341.546448 158.186584,345.524750 157.727173,348.445282 
	C162.375946,347.539429 163.942215,345.721802 160.897522,341.510101 
z"/>
<path fill="#000000" opacity="1.000000" stroke="none" 
	d="
M125.935867,364.618591 
	C117.977036,362.421265 114.764153,351.897430 117.772148,344.476898 
	C120.597908,337.505890 128.246780,334.250275 135.509964,336.838318 
	C142.318527,339.264374 145.701508,346.070648 144.209381,354.340759 
	C143.033783,360.856537 137.661850,365.243317 130.744385,365.238770 
	C129.268463,365.237793 127.792732,364.936279 125.935867,364.618591 
M128.505676,340.959473 
	C124.336021,346.411133 124.807556,352.364380 126.929306,358.317596 
	C127.850967,360.903656 130.332870,361.888947 132.578735,360.251343 
	C135.876297,357.846802 135.727768,353.798950 135.643005,350.266449 
	C135.558655,346.751373 135.596542,342.803650 131.991867,340.549164 
	C131.307709,340.121246 130.099106,340.531799 128.505676,340.959473 
z"/>
<path fill="#000000" opacity="1.000000" stroke="none" 
	d="
M72.493393,351.499451 
	C68.138374,346.594482 67.789474,342.370880 71.181335,338.997375 
	C74.736725,335.461212 83.678276,334.806000 87.016937,337.778473 
	C88.503143,339.101685 88.335312,340.720428 88.074135,342.374908 
	C87.877197,343.622375 87.199356,344.563324 85.864830,344.729767 
	C83.976707,344.965210 83.177597,343.763916 82.799446,342.165222 
	C82.397003,340.463837 81.359581,339.532166 79.615677,339.677948 
	C78.200455,339.796234 77.032166,340.565430 76.619766,341.960846 
	C76.035088,343.939117 77.358513,345.124084 78.823936,345.978302 
	C80.827415,347.146149 82.977837,348.058838 85.012749,349.176514 
	C88.448608,351.063599 89.834274,353.972565 89.402527,357.894287 
	C88.970001,361.823120 86.436630,363.710999 83.029480,364.648499 
	C79.109695,365.726990 75.162926,365.620728 71.275803,364.265900 
	C69.005836,363.474731 68.238792,361.907501 68.557014,359.615845 
	C68.773750,358.055054 69.112564,356.592865 70.958466,356.294708 
	C72.575233,356.033600 73.509468,357.062378 73.884560,358.420929 
	C74.495964,360.635498 75.610016,361.970673 78.096771,361.642181 
	C79.686989,361.432098 81.018364,360.785248 81.535110,359.184692 
	C82.078323,357.502197 81.272766,356.250824 79.831200,355.451782 
	C77.510208,354.165253 75.140732,352.966156 72.493393,351.499451 
z"/>
<path fill="#000000" opacity="1.000000" stroke="none" 
	d="
M96.426697,340.663818 
	C95.788803,341.174377 95.407700,341.525513 95.205177,341.959930 
	C94.510887,343.449127 94.101509,345.320557 91.873825,344.969269 
	C89.907089,344.659180 89.814468,343.020599 89.927765,341.493805 
	C90.071587,339.555542 89.854202,336.993988 92.606636,336.919586 
	C99.571793,336.731354 106.547989,336.777283 113.515190,336.933502 
	C115.951607,336.988098 116.171700,339.089111 116.120132,340.993622 
	C116.081329,342.426941 116.495872,344.256165 114.670692,344.863434 
	C112.202187,345.684723 111.618736,343.643005 110.884712,341.960632 
	C110.537590,341.165100 110.008354,340.557312 109.032722,340.566833 
	C105.705757,344.737244 106.694588,358.920776 110.579102,362.690460 
	C107.603424,365.737640 99.415672,365.918671 95.648529,363.020874 
	C101.305595,356.236786 98.402031,348.486176 98.068947,341.037170 
	C98.060722,340.853241 97.218559,340.706604 96.426697,340.663818 
z"/>
<path fill="#000000" opacity="1.000000" stroke="none" 
	d="
M187.700470,346.673157 
	C190.000870,343.969696 191.570740,341.326691 188.789444,338.001648 
	C192.232391,336.287445 195.189331,336.131958 198.277374,337.859222 
	C193.444046,345.756195 184.895645,352.517151 192.300415,363.192657 
	C189.485184,365.656219 182.022476,365.875275 177.799255,363.327240 
	C185.526840,352.656311 175.814926,346.165741 171.659088,337.535889 
	C176.364273,336.111877 181.012878,336.590393 186.342728,337.379578 
	C184.250824,341.239899 183.775940,344.430908 187.700470,346.673157 
z"/>
<path fill="#000000" opacity="1.000000" stroke="none" 
	d="
M225.005997,400.897949 
	C223.940216,402.106750 222.368103,402.400085 222.144485,404.120941 
	C225.704041,406.647919 227.824982,401.709595 230.996628,402.169556 
	C230.232803,406.887878 224.930222,409.625458 220.092712,407.561768 
	C218.141617,406.729431 216.731918,406.727142 215.014542,407.703979 
	C211.068787,409.948273 207.658340,409.756134 205.583633,405.192810 
	C198.542099,408.581604 198.542099,408.581604 193.810745,401.681091 
	C190.524094,402.330383 189.941727,406.661621 186.578461,407.200897 
	C183.985565,403.637482 184.310608,400.364899 187.596756,396.515289 
	C189.825623,396.807007 188.566345,399.007324 189.656281,400.235504 
	C190.422699,399.596039 191.137619,398.941162 191.911057,398.364777 
	C194.642593,396.329407 196.859451,396.398865 197.939026,400.064728 
	C198.653229,402.489899 199.325851,404.864288 202.602707,403.044647 
	C205.183502,401.611481 207.615646,399.988495 203.988953,396.395355 
	C208.096985,395.950562 208.740097,392.430145 210.271652,390.198364 
	C212.868759,390.826935 211.595016,393.138031 212.914673,393.984619 
	C214.549652,394.790039 216.561050,393.048645 218.660446,395.289948 
	C215.516327,398.188080 207.326843,397.233734 210.472076,405.257416 
	C213.809387,405.823578 216.444351,404.782806 217.864868,401.077393 
	C218.452927,399.543427 219.085266,397.921204 220.113708,396.685516 
	C221.731506,394.741669 224.031219,392.638336 226.460754,394.687866 
	C228.838425,396.693665 226.822739,398.877533 225.005997,400.897949 
z"/>
<path fill="#000000" opacity="1.000000" stroke="none" 
	d="
M177.708633,408.150269 
	C174.324814,408.553192 171.340897,408.815521 168.394318,409.303314 
	C164.289505,409.982819 163.241043,408.135498 164.149139,404.493805 
	C164.994507,401.103668 165.753403,397.704620 165.764633,394.181610 
	C165.770325,392.398773 166.287933,390.553406 168.178772,390.284637 
	C173.158020,389.576874 178.218475,390.239380 183.491837,388.528320 
	C183.202408,392.790436 180.850800,392.840088 178.779434,393.055664 
	C176.634064,393.278900 174.463486,393.250671 172.305878,393.368408 
	C170.637512,393.459442 169.213913,394.055359 169.494507,396.019775 
	C169.758118,397.865417 171.331116,397.514618 172.663116,397.466461 
	C174.869858,397.386658 177.092545,395.829803 179.322189,397.408691 
	C179.745346,400.056396 177.892502,400.102570 176.247345,400.246338 
	C174.428833,400.405212 172.586441,400.327759 170.777039,400.543152 
	C169.011200,400.753357 168.197311,401.944824 168.337723,403.699310 
	C168.482376,405.506836 169.843369,405.756622 171.233353,405.644470 
	C173.212357,405.484833 175.175293,405.133911 177.148758,404.894989 
	C178.704773,404.706604 180.360001,403.899200 181.742050,405.355316 
	C181.567093,407.869385 179.626755,407.689087 177.708633,408.150269 
z"/>
<path fill="#000000" opacity="1.000000" stroke="none" 
	d="
M233.927856,409.602600 
	C232.149399,405.338287 232.492477,401.384552 233.633408,397.869812 
	C235.977844,396.339905 236.146927,398.758484 237.299210,398.953888 
	C239.432205,397.415100 241.143448,394.493103 245.444794,397.546417 
	C239.534241,399.512482 238.439224,404.508514 236.343811,408.838135 
	C235.950104,409.651611 235.182114,409.964691 233.927856,409.602600 
z"/>
<path fill="#000000" opacity="1.000000" stroke="none" 
	d="
M33.864342,295.410583 
	C35.858559,294.969910 37.494560,294.670288 39.120499,294.323517 
	C45.677208,292.924957 47.166061,294.024780 48.505222,301.509674 
	C45.556114,302.935608 42.347069,303.693787 39.070518,303.823914 
	C34.889153,303.989960 31.945532,299.433624 33.864342,295.410583 
z"/>
<path fill="#000000" opacity="1.000000" stroke="none" 
	d="
M50.453514,292.041565 
	C53.286533,291.047363 55.837696,290.326324 58.306511,289.388458 
	C61.044197,288.348450 62.562004,289.256622 63.773949,291.842743 
	C66.293556,297.219208 66.284302,297.329803 58.192455,299.578400 
	C52.275581,301.222656 49.393600,298.590240 50.453514,292.041565 
z"/>
<path fill="#000000" opacity="1.000000" stroke="none" 
	d="
M134.591949,252.451447 
	C139.083679,254.454422 136.955933,258.039215 136.799149,261.013947 
	C136.715485,262.601074 127.211624,268.131439 125.640373,267.940369 
	C123.932579,267.732697 123.578445,266.369293 123.399971,265.056244 
	C123.045044,262.445068 122.299751,259.622040 125.174637,257.845398 
	C128.146912,256.008606 131.207809,254.315292 134.591949,252.451447 
z"/>
<path fill="#000000" opacity="1.000000" stroke="none" 
	d="
M109.603302,277.163574 
	C104.970322,273.646667 104.995483,269.215759 109.337532,266.645325 
	C110.621246,265.885376 111.879524,265.039337 113.250244,264.479553 
	C115.325050,263.632172 117.421692,260.783630 119.722969,263.743164 
	C121.634285,266.201172 120.202209,271.722992 117.467125,273.259521 
	C115.013268,274.638062 112.454506,275.829834 109.603302,277.163574 
z"/>
<path fill="#000000" opacity="1.000000" stroke="none" 
	d="
M205.876587,212.853638 
	C208.347061,211.964737 210.147202,210.123199 212.679138,210.678101 
	C214.039886,219.207596 208.754883,225.142471 198.788315,226.368973 
	C197.762161,219.387848 199.458084,216.029526 205.876587,212.853638 
z"/>
<path fill="#000000" opacity="1.000000" stroke="none" 
	d="
M190.440445,231.466614 
	C188.030304,232.674347 185.970230,233.732574 183.885223,234.739151 
	C183.632645,234.861099 183.245651,234.704590 182.921310,234.672791 
	C179.524933,227.124374 185.137436,220.167191 195.759842,218.754456 
	C196.693329,224.567383 195.043549,228.726593 190.440445,231.466614 
z"/>
</svg>